<svg xmlns="http://www.w3.org/2000/svg" xmlns:xlink="http://www.w3.org/1999/xlink" xml:space="preserve" width="52.351" height="52.351" viewBox="0 0 52.351 52.351"><defs><linearGradient xlink:href="#a" id="d" x1=".05" x2="1" y2="1" gradientTransform="translate(-2.38 -2.38)scale(52.35148)" gradientUnits="userSpaceOnUse"/><linearGradient id="a" x1=".05" x2="1" y2="1" gradientTransform="matrix(22 0 0 22 -56.75 -22.125)" gradientUnits="userSpaceOnUse"><stop offset=".2" stop-color="#7e0000" style="stop-color:#595500;stop-opacity:.90196079"/><stop offset=".205" stop-color="#ae0003" style="stop-color:#ffeb35;stop-opacity:1"/><stop offset="1" stop-color="#7e0002" style="stop-color:#bf8c05;stop-opacity:1"/></linearGradient></defs><rect width="52.351" height="52.351" fill="url(#j)" stroke="gray" stroke-opacity=".2" opacity=".9" rx="15.705" style="fill:url(#d);stroke-width:2.37961;-inkscape-stroke:hairline" vector-effect="non-scaling-stroke"/><path d="M31.768 7.438q-.296 0-.623.054c-3.527.59-3.38 4.696-3.38 4.696s0 1.817 1.696 2.736c1.411.814 2.223-.063 2.361-.201s3.009-3.73 2.547 3.088c0 0 1.01-1.1 1.074-3.717.062-2.618-1.623-2.78-1.623-2.78s-.743-.188-2.22 1.409c-1.245 1.344-1.518 1.506-1.573 1.523h-.004s-.418.295-.468-.445-.21-2.978 2.047-4.192c2.25-1.213 3.35 1.756 3.35 1.756s-.248-3.923-3.184-3.927M25.404 9.14a1.197 1.597 77.92 0 0-.414.046 1.197 1.597 77.92 0 0-1.308 1.504 1.197 1.597 77.92 0 0 1.808.838 1.197 1.597 77.92 0 0 1.313-1.506 1.197 1.597 77.92 0 0-1.399-.882m-7.431.505c-.015.017-1.011 1.115-1.073 3.713-.061 2.618 1.618 2.774 1.618 2.774s.743.184 2.22-1.41c1.2-1.297 1.5-1.495 1.567-1.524h.013s.416-.29.463.447c.048.738.211 2.987-2.045 4.194-2.253 1.206-3.35-1.756-3.35-1.756s.287 4.459 3.811 3.871c3.527-.588 3.38-4.695 3.38-4.695s.003-1.81-1.698-2.73c-1.411-.815-2.225.062-2.365.202s-3 3.729-2.541-3.086m7.941 2.176a1 1 0 0 0-.16.002 1.223 1.223 0 0 0-1.125 1.317 1.2 1.2 0 0 0 .055.283s.708 2.825 4.535 2.916c0 0-2.206-1.577-2.157-3.393a1.22 1.22 0 0 0-1.148-1.125m-2.418 8.041c-.553 0-.553.003-1.078.56L20.92 22.63h-3.508c-1.217 0-2.213.909-2.213 2.092v12.353c0 1.183.996 2.15 2.213 2.15h8.06v1.133l-8.02 8.02a.83.83 0 0 0 0 1.178.833.833 0 0 0 1.179.002l6.842-6.844v7.924a.83.83 0 0 0 .834.832.83.83 0 0 0 .832-.832V42.8l6.756 6.756a.83.83 0 0 0 1.177-.002.83.83 0 0 0 0-1.178l-7.933-7.932v-1.22h7.974c1.217 0 2.211-.968 2.211-2.15V24.72c0-1.183-.994-2.092-2.21-2.092h-3.51l-1.518-2.227c-.505-.536-.506-.539-1.059-.539zm11.738 4.149h.016a.69.69 0 0 1 .691.691.69.69 0 0 1-.691.692.69.69 0 0 1-.691-.692.69.69 0 0 1 .675-.691m-9.056 1.383h.084a5.53 5.53 0 0 1 5.531 5.533 5.53 5.53 0 0 1-5.531 5.531 5.53 5.53 0 0 1-5.532-5.531 5.53 5.53 0 0 1 5.448-5.533m.017 2.765a2.766 2.766 0 0 0-2.699 2.768 2.766 2.766 0 0 0 2.766 2.765 2.766 2.766 0 0 0 2.765-2.765 2.766 2.766 0 0 0-2.765-2.768z" style="fill:#444;stroke-width:2.37961;fill-opacity:1"/></svg>